<svg viewBox="0 0 382 382" xmlns="http://www.w3.org/2000/svg">
	<title>scroll</title>
	<g>
		<path stroke-miterlimit="10" stroke-linejoin="round" stroke-linecap="round" stroke-width="12" stroke="#000000" fill="none" id="svg_2"
			  d="m78.676414,94.964562c1.3,-11.5 4.3,-22.7 9.4,-33.4c9.3,-19.4 23.6,-34 43,-43.6c15.5,-7.6 31.9,-11.1 48.9,-12.2c1.1,-0.1 2.1,-0.4 3.2,-0.5c6.3,0 12.6,0 18.9,0c7.4,1 14.9,1.6 22.2,3c20.2,3.7 38.4,11.7 53.3,26c15.8,15.2 24.9,34 28.2,55.6c1.1,7 1.5,14.2 1.5,21.3c0.1,23.4 0.1,46.9 0.1,70.3"
			  class="st0"/>
		<path stroke-miterlimit="10" stroke-linejoin="round" stroke-linecap="round" stroke-width="12" stroke="#000000" fill="none" id="svg_3"
			  d="m307.476414,199.764562c0,0.7 0,-0.6 0,0" class="st0"/>
		<path stroke-miterlimit="10" stroke-linejoin="round" stroke-linecap="round" stroke-width="12" stroke="#000000" fill="none" id="svg_4"
			  d="m307.476414,218.164562c0,18.4 0,36.7 0,55.1c0,16.7 -3,32.7 -10.2,47.8c-9.3,19.3 -23.4,33.9 -42.8,43.3c-22.1,10.8 -45.7,13.5 -70,12.6c-18.4,-0.7 -36.3,-4.1 -53,-12.2c-22.8,-11.1 -38.2,-28.8 -47.1,-52.4c-4.8,-12.8 -6.6,-26.2 -6.6,-39.9c0,-51.8 0,-103.6 0,-155.3"
			  class="st0"/>
		<path stroke-miterlimit="10" stroke-width="12" stroke="#000000" fill="none" id="svg_5"
			  d="m177.476414,102.964562c0,5.3 -0.1,10.6 0,16c0.2,9.1 6.5,15.7 15,15.8c8.7,0.1 15.3,-6.5 15.4,-15.8c0.1,-10.4 0.1,-20.8 0,-31.2c-0.1,-9.1 -6.5,-15.7 -15,-15.8c-8.7,-0.1 -15.2,6.6 -15.4,15.8c-0.1,5.1 0,10.1 0,15.2z"
			  class="st1"/>
	</g>
</svg>